<svg width="163" height="43" viewBox="0 0 163 43" fill="none" xmlns="http://www.w3.org/2000/svg">
<path d="M15.1989 14.5114C14.0909 14.5114 13.2528 14.7339 12.6847 15.179C12.1259 15.6241 11.8277 16.2633 11.7898 17.0966H5.59659C5.70076 15.4678 6.11742 14.09 6.84659 12.9631C7.57576 11.8362 8.62216 10.9792 9.9858 10.392C11.3589 9.80492 13.0587 9.51136 15.0852 9.51136C17.1023 9.51136 18.8116 9.79072 20.2131 10.3494C21.6241 10.9081 22.6941 11.6847 23.4233 12.679C24.1525 13.6733 24.517 14.8381 24.517 16.1733C24.517 16.8078 24.3939 17.4138 24.1477 17.9915C23.9015 18.5597 23.5748 19.0805 23.1676 19.554C22.7604 20.018 22.3201 20.4252 21.8466 20.7756L16.946 19.4688C17.4479 19.09 17.822 18.6733 18.0682 18.2188C18.3239 17.7642 18.447 17.2434 18.4375 16.6562C18.447 16.0028 18.1771 15.482 17.6278 15.0938C17.0786 14.7055 16.2689 14.5114 15.1989 14.5114ZM26.392 23.233H3.62216V19.1562H26.392V23.233ZM26.392 29.3551H3.62216V25.3778H26.392V29.3551ZM15.0852 39.3977C11.8182 39.3977 9.34659 38.7727 7.67045 37.5227C6.00379 36.2727 5.16572 34.5587 5.15625 32.3807C5.16572 31.7273 5.30777 31.0928 5.58239 30.4773C5.85701 29.8617 6.21686 29.3078 6.66193 28.8153C7.10701 28.3229 7.5947 27.9394 8.125 27.6648L12.983 28.858C12.4337 29.2367 12.017 29.7055 11.733 30.2642C11.4489 30.8229 11.3021 31.3674 11.2926 31.8977C11.3021 32.7121 11.643 33.3419 12.3153 33.7869C12.9972 34.232 13.9205 34.4545 15.0852 34.4545C16.25 34.4545 17.1875 34.232 17.8977 33.7869C18.6174 33.3419 19.0057 32.5748 19.0625 31.4858H25.3267C25.2225 33.3134 24.7917 34.8097 24.0341 35.9744C23.286 37.1392 22.1733 38.0009 20.696 38.5597C19.2188 39.1184 17.3485 39.3977 15.0852 39.3977Z" fill="black"/>
<path d="M39.02 21.42C39.02 20.86 39.1133 19.94 39.3 18.66H34.78C34.6067 19.66 34.52 20.3467 34.52 20.72C34.52 22.0133 34.72 22.98 35.12 23.62C34.32 24.22 33.4867 24.52 32.62 24.52C31.7533 24.52 31.1333 24.2733 30.76 23.78C30.3867 23.2733 30.2 22.5267 30.2 21.54C30.2 20.54 30.62 17.72 31.46 13.08L30.4 10.94C31.9067 9.96667 33.28 9.48 34.52 9.48C35.5467 9.48 36.06 10.1067 36.06 11.36C36.06 11.7333 35.78 13.3733 35.22 16.28H39.7C39.7533 15.9467 39.9467 14.88 40.28 13.08L39.22 10.94C40.7267 9.96667 42.1 9.48 43.34 9.48C44.3667 9.48 44.88 10.1067 44.88 11.36C44.88 11.7733 44.62 13.3133 44.1 15.98C43.5933 18.6333 43.34 20.2133 43.34 20.72C43.34 22.0133 43.54 22.98 43.94 23.62C43.14 24.22 42.3067 24.52 41.44 24.52C40.5733 24.52 39.9533 24.2733 39.58 23.78C39.2067 23.2733 39.02 22.4867 39.02 21.42ZM46.5844 22.02C46.5844 21.4867 46.7177 20.4533 46.9844 18.92C47.2644 17.3867 47.551 15.9867 47.8444 14.72L46.8044 13.12C48.471 12.3733 49.6377 12 50.3044 12C50.9844 12 51.3244 12.4267 51.3244 13.28C51.3244 13.7467 51.1044 14.72 50.6644 16.2L50.8644 16.3C51.8244 13.4333 53.0177 12 54.4444 12C55.0977 12 55.5977 12.2 55.9444 12.6C56.291 13 56.4644 13.4467 56.4644 13.94C56.4644 14.6733 56.191 15.3 55.6444 15.82C55.0977 16.34 54.2777 16.6 53.1844 16.6C51.531 16.6 50.7044 18.3 50.7044 21.7C50.7044 22.5267 50.8444 23.1333 51.1244 23.52C50.2977 24.1733 49.5377 24.5 48.8444 24.5C47.3377 24.5 46.5844 23.6733 46.5844 22.02ZM66.8303 13.52C67.577 13.52 68.217 13.82 68.7503 14.42C69.297 15.02 69.5703 15.8933 69.5703 17.04C69.5703 18.1733 69.3703 19.2267 68.9703 20.2C68.5703 21.16 68.0436 21.9467 67.3903 22.56C66.737 23.1733 65.997 23.6533 65.1703 24C64.3436 24.3333 63.497 24.5 62.6303 24.5C60.8836 24.5 59.5036 24.02 58.4903 23.06C57.477 22.1 56.9703 20.8267 56.9703 19.24C56.9703 17.0933 57.657 15.3533 59.0303 14.02C60.417 12.6733 62.177 12 64.3103 12C64.7903 12 65.2703 12.0533 65.7503 12.16C65.897 12.6 65.977 13.1 65.9903 13.66C66.2703 13.5667 66.5503 13.52 66.8303 13.52ZM64.3703 16.3C64.3703 15.9267 64.457 15.5067 64.6303 15.04C64.817 14.5733 65.1103 14.2 65.5103 13.92C63.7503 14.2933 62.537 15.0067 61.8703 16.06C61.297 16.9667 61.0103 17.9 61.0103 18.86C61.0103 19.82 61.2036 20.5933 61.5903 21.18C61.9903 21.7533 62.497 22.04 63.1103 22.04C64.4703 22.04 65.4303 21.1533 65.9903 19.38C64.9103 18.7133 64.3703 17.6867 64.3703 16.3ZM77.8472 14.66C77.3539 14.8067 76.9605 15.02 76.6672 15.3C76.3739 15.5667 76.1139 15.9533 75.8872 16.46C78.1405 16.7933 79.7272 17.2733 80.6472 17.9C81.5672 18.5267 82.0272 19.42 82.0272 20.58C82.0272 21.3133 81.8205 21.9533 81.4072 22.5C80.9939 23.0333 80.4739 23.44 79.8472 23.72C78.6205 24.24 77.4139 24.5 76.2272 24.5C72.8539 24.5 71.1672 23.7733 71.1672 22.32C71.1672 21.5867 71.4939 20.8533 72.1472 20.12C72.4805 20.5867 72.9805 20.9867 73.6472 21.32C74.3272 21.6533 74.9872 21.82 75.6272 21.82C76.7339 21.82 77.4005 21.3333 77.6272 20.36C75.6005 20.12 74.1339 19.6667 73.2272 19C72.3205 18.3333 71.8672 17.3933 71.8672 16.18C71.8672 15.22 72.1805 14.4133 72.8072 13.76C73.4472 13.1067 74.2339 12.6533 75.1672 12.4C76.1139 12.1333 77.1739 12 78.3472 12C79.5339 12 80.5072 12.2267 81.2672 12.68C82.0405 13.12 82.4272 13.66 82.4272 14.3C82.4272 14.94 82.2005 15.4333 81.7472 15.78C81.3072 16.1267 80.8205 16.3 80.2872 16.3C79.7672 16.3 79.2872 16.16 78.8472 15.88C78.4205 15.6 78.0872 15.1933 77.8472 14.66ZM95.3588 12C96.9721 12 97.7788 12.8067 97.7788 14.42C97.7788 15.1133 97.5788 16.2867 97.1788 17.94C96.7921 19.5933 96.5988 20.84 96.5988 21.68C96.5988 22.52 96.7388 23.1333 97.0188 23.52C96.3121 24.1733 95.5654 24.5 94.7788 24.5C93.2454 24.5 92.4788 23.6733 92.4788 22.02C92.4788 21.4067 92.6788 20.3667 93.0788 18.9C93.4788 17.4333 93.6788 16.48 93.6788 16.04C93.6788 15.44 93.4521 15.14 92.9988 15.14C92.6254 15.14 92.1988 15.3067 91.7188 15.64C91.2388 15.96 90.7721 16.4 90.3188 16.96C89.8788 17.5067 89.5054 18.2067 89.1988 19.06C88.8921 19.9 88.7388 20.76 88.7388 21.64C88.7388 22.5067 88.8788 23.1333 89.1588 23.52C88.4521 24.1733 87.7054 24.5 86.9188 24.5C85.3854 24.5 84.6188 23.6733 84.6188 22.02C84.6188 21.0333 84.8854 19.0333 85.4188 16.02C85.8721 13.3667 86.1321 11.88 86.1988 11.56L85.0788 9.96C86.7454 8.98667 88.0588 8.5 89.0188 8.5C89.5654 8.5 89.9521 8.61333 90.1788 8.84C90.4054 9.05333 90.5188 9.41333 90.5188 9.92C90.5188 10.88 90.4254 11.9267 90.2388 13.06C90.0521 14.1933 89.8788 15.0267 89.7188 15.56L89.9188 15.66C91.3454 13.22 93.1588 12 95.3588 12ZM105.328 23.6C104.701 23.8267 104.074 23.94 103.448 23.94C102.821 23.94 102.294 23.7533 101.868 23.38C101.441 23.0067 101.194 22.5 101.128 21.86C101.061 21.22 101.001 20.2933 100.948 19.08C100.894 17.8533 100.841 16.9867 100.788 16.48C100.614 14.7867 100.081 13.58 99.1875 12.86C99.8142 12.2867 100.601 12 101.548 12C102.068 12 102.521 12.14 102.908 12.42C103.294 12.6867 103.601 13.0467 103.827 13.5C104.068 13.94 104.261 14.5133 104.408 15.22C104.634 16.3933 104.748 17.98 104.748 19.98C104.748 20.4733 104.728 21.0533 104.688 21.72H105.848C107.221 18.0133 107.908 15.4867 107.908 14.14C107.908 13.6867 107.808 13.26 107.608 12.86C108.541 12.2867 109.354 12 110.048 12C111.341 12 111.988 12.7467 111.988 14.24C111.988 15.4267 111.441 17.5133 110.348 20.5C110.148 21.0467 110.034 21.3667 110.008 21.46C108.314 26.2867 105.908 28.7 102.788 28.7C101.841 28.7 101.061 28.4933 100.448 28.08C99.8342 27.68 99.5275 27.1467 99.5275 26.48C99.5275 25.8267 99.7742 25.14 100.268 24.42C100.908 25.3267 101.708 25.78 102.668 25.78C103.214 25.78 103.721 25.6 104.188 25.24C104.668 24.88 105.048 24.3333 105.328 23.6ZM115.474 11.56L114.354 9.96C116.02 8.98667 117.334 8.5 118.294 8.5C118.84 8.5 119.227 8.61333 119.454 8.84C119.68 9.05333 119.794 9.42 119.794 9.94C119.794 10.4467 119.707 11.16 119.534 12.08C119.374 13 119.154 14.0867 118.874 15.34C118.607 16.5933 118.414 17.6 118.294 18.36L119.554 17.24C119.674 17.1333 119.867 16.9667 120.134 16.74C120.414 16.5 120.607 16.3267 120.714 16.22C120.834 16.1133 120.994 15.9667 121.194 15.78C121.394 15.58 121.54 15.4133 121.634 15.28C121.727 15.1467 121.834 14.9933 121.954 14.82C122.14 14.5267 122.234 14.2 122.234 13.84C122.234 13.4667 122.18 13.14 122.074 12.86C123.02 12.2867 123.914 12 124.754 12C125.314 12 125.76 12.18 126.094 12.54C126.427 12.8867 126.594 13.3933 126.594 14.06C126.594 14.7267 126.287 15.4 125.674 16.08C125.074 16.7467 124.327 17.3333 123.434 17.84C123.847 19.2133 124.38 20.4733 125.034 21.62C125.687 22.7667 126.234 23.4533 126.674 23.68C126.14 24.2267 125.314 24.5 124.194 24.5C123.367 24.5 122.667 24.22 122.094 23.66C121.534 23.1 121.034 22.18 120.594 20.9L120.094 19.48L118.034 20.5C118.02 20.6467 118.014 20.8667 118.014 21.16C118.014 22.2667 118.22 23.0533 118.634 23.52C117.7 24.1733 116.854 24.5 116.094 24.5C115.334 24.5 114.774 24.2533 114.414 23.76C114.067 23.2533 113.894 22.56 113.894 21.68C113.894 20.8 114.14 19 114.634 16.28C115.127 13.56 115.407 11.9867 115.474 11.56Z" fill="black"/>
<path d="M127.6 16.656C127.6 13.616 128.448 11.184 130.144 9.36C131.84 7.52 134.16 6.6 137.104 6.6C138.048 6.6 138.72 6.792 139.12 7.176C139.536 7.544 139.744 8.12 139.744 8.904C139.744 9.016 139.728 9.232 139.696 9.552C140.288 9.072 140.944 8.832 141.664 8.832C142.64 8.832 143.472 9.272 144.16 10.152C144.864 11.016 145.216 12.272 145.216 13.92C145.216 15.568 144.952 17.08 144.424 18.456C143.896 19.832 143.192 20.96 142.312 21.84C141.448 22.72 140.456 23.4 139.336 23.88C138.232 24.36 137.088 24.6 135.904 24.6C133.344 24.6 131.32 23.872 129.832 22.416C128.344 20.944 127.6 19.024 127.6 16.656ZM139.576 17.784C138.552 16.536 138.04 15.192 138.04 13.752C138.04 12.312 138.36 11.152 139 10.272C138.712 10.224 138.424 10.2 138.136 10.2C137 10.2 136.016 10.544 135.184 11.232C133.616 12.512 132.832 14.288 132.832 16.56C132.832 17.856 133.12 18.936 133.696 19.8C134.272 20.664 135.072 21.096 136.096 21.096C136.88 21.096 137.592 20.792 138.232 20.184C138.888 19.56 139.336 18.76 139.576 17.784Z" fill="#F7D000"/>
<path d="M149.344 24.624C148.304 24.624 147.56 24.328 147.112 23.736C146.664 23.128 146.44 22.232 146.44 21.048C146.44 19.848 146.944 16.464 147.952 10.896L146.68 8.328C148.488 7.16 150.136 6.576 151.624 6.576C152.856 6.576 153.472 7.328 153.472 8.832C153.472 9.28 153.136 11.248 152.464 14.736L153.592 13.8C155.928 11.848 157.096 10.184 157.096 8.808C157.096 8.392 157.032 8.016 156.904 7.68C158.088 6.96 159.208 6.6 160.264 6.6C161.832 6.6 162.616 7.4 162.616 9C162.616 10.792 161.024 12.608 157.84 14.448C159.328 19.216 160.936 22.16 162.664 23.28C162.312 23.632 161.784 23.936 161.08 24.192C160.392 24.464 159.776 24.6 159.232 24.6C158.144 24.6 157.272 24.32 156.616 23.76C155.96 23.2 155.368 22.168 154.84 20.664L153.448 16.752L151.96 17.544C151.736 18.856 151.624 19.696 151.624 20.064C151.624 21.616 151.864 22.776 152.344 23.544C151.384 24.264 150.384 24.624 149.344 24.624Z" fill="#0054B1"/>
<path d="M76.23 33.47C76.7767 33.5433 77.2233 33.7433 77.57 34.07C77.9167 34.39 78.09 34.7733 78.09 35.22C78.09 35.6067 77.98 35.9467 77.76 36.24C77.5467 36.5267 77.2467 36.75 76.86 36.91C76.48 37.07 76.0533 37.15 75.58 37.15C75.16 37.15 74.7967 37.0967 74.49 36.99C74.19 36.8767 73.89 36.7233 73.59 36.53C73.4767 36.4633 73.37 36.3967 73.27 36.33C73.1767 36.2633 73.0967 36.21 73.03 36.17L73.43 37.28L73.42 37.34H73.18L72.38 34.28L72.52 34.23L72.59 34.44C72.67 34.72 72.8833 35.0633 73.23 35.47C73.5767 35.8767 73.9667 36.2267 74.4 36.52C74.8333 36.8133 75.2333 36.96 75.6 36.96C75.9067 36.96 76.18 36.8933 76.42 36.76C76.66 36.62 76.8467 36.4233 76.98 36.17C77.12 35.91 77.19 35.6033 77.19 35.25C77.19 34.95 77.1233 34.6733 76.99 34.42C76.8567 34.1667 76.6633 33.9667 76.41 33.82C76.1633 33.6733 75.8767 33.6 75.55 33.6H75.42V34.76H75.31L74.88 32.51H75.42V33.4H75.54C75.8067 33.4 76.05 33.3233 76.27 33.17C76.49 33.0167 76.6633 32.81 76.79 32.55C76.9233 32.2833 76.99 31.9967 76.99 31.69C76.99 31.3567 76.9267 31.0633 76.8 30.81C76.68 30.5567 76.5133 30.3633 76.3 30.23C76.0933 30.09 75.8633 30.02 75.61 30.02C75.3033 30.02 74.95 30.1467 74.55 30.4C74.1567 30.6533 73.7933 30.9667 73.46 31.34C73.1333 31.7133 72.9067 32.0633 72.78 32.39L72.76 32.45L72.62 32.41L73.33 29.76H73.58L73.6 29.82L73.28 30.65C73.3667 30.6167 73.4933 30.55 73.66 30.45C73.9533 30.27 74.24 30.1267 74.52 30.02C74.8067 29.9067 75.17 29.85 75.61 29.85C76.01 29.85 76.3767 29.93 76.71 30.09C77.05 30.2433 77.3167 30.46 77.51 30.74C77.71 31.0133 77.81 31.3267 77.81 31.68C77.81 32.1133 77.6633 32.4867 77.37 32.8C77.0833 33.1133 76.7033 33.3367 76.23 33.47ZM82.1034 36.9C82.1301 36.2467 82.1434 35.7133 82.1434 35.3V32.14C82.0434 32.14 81.8268 32.18 81.4934 32.26L81.3734 32.29L81.3434 32.23L81.5234 32H84.9934L84.5934 31.38L84.6034 31.37H84.9034L85.4634 32.99L85.3634 33.03V33.01C85.2834 32.8833 85.1368 32.7567 84.9234 32.63C84.7168 32.4967 84.4468 32.3867 84.1134 32.3C83.7801 32.2067 83.3934 32.16 82.9534 32.16H82.8834V36.86C82.9701 36.86 83.1134 36.8433 83.3134 36.81C83.5134 36.77 83.6901 36.7333 83.8434 36.7L83.8834 36.76L83.6534 37H82.1034V36.9ZM86.7323 38.9C86.759 38.2467 86.7723 37.7133 86.7723 37.3V32.14C86.6723 32.14 86.4557 32.18 86.1223 32.26L86.0023 32.29L85.9723 32.23L86.1523 32H86.8923C86.9923 32 87.109 31.9967 87.2423 31.99C87.3823 31.9833 87.4857 31.9733 87.5523 31.96V32.04C87.5457 32.14 87.539 32.24 87.5323 32.34C87.5323 32.44 87.529 32.54 87.5223 32.64C87.5223 32.74 87.519 32.8433 87.5123 32.95C87.5123 33.0567 87.5123 33.1633 87.5123 33.27C87.6723 32.8433 87.919 32.51 88.2523 32.27C88.5923 32.0233 88.9923 31.9 89.4523 31.9C89.879 31.9 90.2657 32.0133 90.6123 32.24C90.959 32.4667 91.2323 32.78 91.4323 33.18C91.6323 33.5733 91.7323 34.0133 91.7323 34.5C91.7323 35 91.6323 35.4467 91.4323 35.84C91.239 36.2333 90.969 36.5433 90.6223 36.77C90.2757 36.99 89.8857 37.1 89.4523 37.1C88.9857 37.1 88.5823 36.98 88.2423 36.74C87.909 36.4933 87.6657 36.1567 87.5123 35.73V38.86C87.639 38.86 87.909 38.82 88.3223 38.74C88.3823 38.7267 88.4323 38.7167 88.4723 38.71L88.5123 38.77L88.2823 39H86.7323V38.9ZM89.2123 36.84C89.539 36.84 89.8323 36.74 90.0923 36.54C90.359 36.34 90.5657 36.0633 90.7123 35.71C90.859 35.35 90.9323 34.9467 90.9323 34.5C90.9323 34.0533 90.859 33.65 90.7123 33.29C90.5657 32.93 90.359 32.65 90.0923 32.45C89.8323 32.25 89.539 32.15 89.2123 32.15C88.879 32.15 88.579 32.26 88.3123 32.48C88.0523 32.6933 87.849 32.98 87.7023 33.34C87.5557 33.7 87.4823 34.0867 87.4823 34.5C87.4823 34.9467 87.5557 35.35 87.7023 35.71C87.8557 36.0633 88.0623 36.34 88.3223 36.54C88.589 36.74 88.8857 36.84 89.2123 36.84ZM95.4346 37.1C94.9213 37.1 94.4579 36.9867 94.0446 36.76C93.6313 36.5333 93.3079 36.2233 93.0746 35.83C92.8413 35.43 92.7246 34.9867 92.7246 34.5C92.7246 34.0133 92.8413 33.5733 93.0746 33.18C93.3079 32.78 93.6313 32.4667 94.0446 32.24C94.4579 32.0133 94.9213 31.9 95.4346 31.9C95.9413 31.9 96.4013 32.0133 96.8146 32.24C97.2279 32.4667 97.5513 32.78 97.7846 33.18C98.0179 33.5733 98.1346 34.0133 98.1346 34.5C98.1346 34.9867 98.0179 35.43 97.7846 35.83C97.5513 36.2233 97.2279 36.5333 96.8146 36.76C96.4013 36.9867 95.9413 37.1 95.4346 37.1ZM95.4346 36.91C95.7879 36.91 96.1079 36.8067 96.3946 36.6C96.6879 36.3867 96.9179 36.0967 97.0846 35.73C97.2513 35.3633 97.3346 34.9533 97.3346 34.5C97.3346 34.04 97.2513 33.6267 97.0846 33.26C96.9179 32.8933 96.6879 32.6067 96.3946 32.4C96.1079 32.1867 95.7879 32.08 95.4346 32.08C95.0746 32.08 94.7479 32.1867 94.4546 32.4C94.1679 32.6067 93.9413 32.8933 93.7746 33.26C93.6079 33.6267 93.5246 34.04 93.5246 34.5C93.5246 34.9533 93.6079 35.3633 93.7746 35.73C93.9413 36.0967 94.1679 36.3867 94.4546 36.6C94.7479 36.8067 95.0746 36.91 95.4346 36.91ZM99.7109 36.9C99.7375 36.2467 99.7509 35.7133 99.7509 35.3V32.14C99.6509 32.14 99.4342 32.18 99.1009 32.26L98.9809 32.29L98.9509 32.23L99.1309 32H99.8709C99.9709 32 100.088 31.9967 100.221 31.99C100.361 31.9833 100.464 31.9733 100.531 31.96V32.04C100.504 32.5467 100.491 33.1 100.491 33.7V36.8H102.831V33.36C102.831 32.86 102.814 32.4333 102.781 32.08V32H102.961C103.054 32 103.171 31.9967 103.311 31.99C103.451 31.9833 103.551 31.9733 103.611 31.96L103.631 32.04C103.598 32.46 103.581 33.0133 103.581 33.7V36.8H105.921V33.36C105.921 32.9467 105.908 32.52 105.881 32.08V32H106.041C106.148 32 106.271 31.9967 106.411 31.99C106.551 31.9833 106.648 31.9733 106.701 31.96L106.711 32.04C106.678 32.5467 106.661 33.1 106.661 33.7V35.3C106.661 35.7133 106.674 36.2467 106.701 36.9V37H99.7109V36.9ZM113.884 36.76L113.704 37H112.304V36.9C112.331 36.2467 112.344 35.7133 112.344 35.3V32.51L108.864 37.22H108.734C108.754 36.7 108.764 36.12 108.764 35.48V32.14C108.664 32.14 108.447 32.18 108.114 32.26L107.994 32.29L107.964 32.23L108.144 32H108.894C108.994 32 109.111 31.9967 109.244 31.99C109.377 31.9833 109.477 31.9733 109.544 31.96L109.564 32.04C109.531 32.46 109.514 33.0133 109.514 33.7V35.99L112.474 32H112.544C112.617 32 112.704 31.9967 112.804 31.99C112.911 31.9833 113.014 31.9733 113.114 31.96L113.124 32.04C113.117 32.1667 113.111 32.2967 113.104 32.43C113.104 32.5633 113.104 32.7 113.104 32.84C113.097 32.98 113.091 33.1233 113.084 33.27C113.084 33.4167 113.084 33.56 113.084 33.7V36.86C113.157 36.86 113.377 36.8167 113.744 36.73C113.764 36.7233 113.784 36.72 113.804 36.72C113.824 36.7133 113.841 36.7067 113.854 36.7L113.884 36.76ZM115.147 36.91C115.214 36.49 115.264 36.09 115.297 35.71C115.337 35.3233 115.357 34.8633 115.357 34.33V32.5C115.284 32.44 115.204 32.3867 115.117 32.34C115.031 32.2867 114.937 32.24 114.837 32.2C114.791 32.18 114.744 32.1633 114.697 32.15C114.657 32.1367 114.617 32.1267 114.577 32.12L114.627 32H114.977C115.157 32 115.351 31.9933 115.557 31.98C115.771 31.9667 115.951 31.9533 116.097 31.94L116.127 31.96C116.294 32.3733 116.521 32.8767 116.807 33.47C116.834 33.5233 116.857 33.58 116.877 33.64C116.904 33.6933 116.931 33.7467 116.957 33.8L118.077 36.07L120.007 32H120.157C120.264 32 120.381 31.9967 120.507 31.99C120.634 31.9833 120.737 31.9733 120.817 31.96L120.827 32.04C120.794 32.5467 120.777 33.1 120.777 33.7V36.86C120.851 36.86 121.071 36.8167 121.437 36.73C121.457 36.7233 121.477 36.72 121.497 36.72C121.517 36.7133 121.534 36.7067 121.547 36.7L121.577 36.76L121.397 37H119.997V36.9C120.004 36.7533 120.007 36.61 120.007 36.47C120.014 36.3233 120.021 36.1767 120.027 36.03C120.034 35.87 120.037 35.6267 120.037 35.3V32.42L117.897 37H117.757L115.697 32.87C115.691 32.8433 115.681 32.82 115.667 32.8C115.654 32.78 115.641 32.7633 115.627 32.75C115.614 32.7367 115.601 32.7233 115.587 32.71C115.574 32.69 115.557 32.6733 115.537 32.66V36.86C115.604 36.86 115.724 36.84 115.897 36.8C116.091 36.7533 116.227 36.72 116.307 36.7L116.337 36.76L116.157 37H115.147V36.91ZM123.883 37.11C123.356 37.11 122.953 36.9933 122.673 36.76C122.393 36.52 122.253 36.2033 122.253 35.81C122.253 35.47 122.359 35.1967 122.573 34.99C122.793 34.7833 123.073 34.6333 123.413 34.54C123.759 34.4467 124.156 34.3867 124.603 34.36C124.956 34.3267 125.243 34.2833 125.463 34.23C125.683 34.1767 125.853 34.0967 125.973 33.99C126.093 33.8767 126.153 33.7333 126.153 33.56C126.153 33.1133 126.049 32.7567 125.843 32.49C125.636 32.2167 125.363 32.08 125.023 32.08C124.756 32.08 124.479 32.1633 124.193 32.33C123.913 32.49 123.649 32.7033 123.403 32.97C123.163 33.2367 122.959 33.53 122.793 33.85L122.663 33.81L123.243 31.67H123.483L123.493 31.71L123.193 32.46C123.266 32.4533 123.396 32.4067 123.583 32.32C123.823 32.1867 124.043 32.0833 124.243 32.01C124.449 31.9367 124.693 31.9 124.973 31.9C125.553 31.9 126.009 32.0833 126.343 32.45C126.676 32.81 126.843 33.3067 126.843 33.94V36.86C126.916 36.86 127.136 36.8167 127.503 36.73C127.523 36.7233 127.543 36.72 127.563 36.72C127.583 36.7133 127.599 36.7067 127.613 36.7L127.643 36.76L127.463 37H126.103V36.9C126.109 36.78 126.113 36.66 126.113 36.54C126.119 36.42 126.126 36.3 126.133 36.18C126.139 36.1 126.143 36.02 126.143 35.94C126.143 35.86 126.143 35.7833 126.143 35.71C125.983 36.1433 125.699 36.4867 125.293 36.74C124.886 36.9867 124.416 37.11 123.883 37.11ZM124.173 36.84C124.533 36.84 124.863 36.7567 125.163 36.59C125.469 36.4167 125.709 36.18 125.883 35.88C126.056 35.5733 126.143 35.23 126.143 34.85L126.153 34.06C126.053 34.16 125.899 34.2467 125.693 34.32C125.486 34.3933 125.229 34.45 124.923 34.49C124.249 34.55 123.759 34.6833 123.453 34.89C123.153 35.0967 123.003 35.3967 123.003 35.79C123.003 36.1233 123.106 36.3833 123.313 36.57C123.526 36.75 123.813 36.84 124.173 36.84ZM131.449 36.9C131.476 36.2467 131.489 35.7133 131.489 35.3V32.14C131.389 32.14 131.172 32.18 130.839 32.26L130.719 32.29L130.689 32.23L130.869 32H133.049C133.722 32 134.252 32.1133 134.639 32.34C135.032 32.5667 135.229 32.8767 135.229 33.27C135.229 33.5767 135.122 33.8367 134.909 34.05C134.702 34.2567 134.406 34.3967 134.019 34.47C134.486 34.53 134.849 34.6667 135.109 34.88C135.376 35.0933 135.509 35.3667 135.509 35.7C135.509 36.1 135.302 36.4167 134.889 36.65C134.482 36.8833 133.926 37 133.219 37H131.449V36.9ZM133.149 36.82C133.649 36.82 134.049 36.7233 134.349 36.53C134.649 36.33 134.799 36.0633 134.799 35.73C134.799 35.3767 134.649 35.0967 134.349 34.89C134.056 34.6833 133.652 34.58 133.139 34.58H132.229V36.82H133.149ZM133.039 34.4C133.512 34.4 133.886 34.3 134.159 34.1C134.439 33.9 134.579 33.6233 134.579 33.27C134.579 32.9367 134.439 32.6733 134.159 32.48C133.886 32.2867 133.512 32.19 133.039 32.19H132.229V34.4H133.039ZM140.957 33.94C140.824 33.64 140.634 33.35 140.387 33.07C140.147 32.7833 139.884 32.5533 139.597 32.38C139.31 32.2 139.034 32.11 138.767 32.11C138.467 32.11 138.197 32.2133 137.957 32.42C137.717 32.62 137.527 32.9033 137.387 33.27C137.247 33.63 137.177 34.04 137.177 34.5C137.177 34.96 137.25 35.3767 137.397 35.75C137.544 36.1167 137.744 36.4033 137.997 36.61C138.257 36.8167 138.547 36.92 138.867 36.92C139.127 36.92 139.404 36.8267 139.697 36.64C139.99 36.4467 140.257 36.2067 140.497 35.92C140.737 35.6333 140.914 35.3567 141.027 35.09L141.167 35.13L140.567 37.34H140.297L140.287 37.3L140.657 36.47C140.55 36.4767 140.4 36.5367 140.207 36.65C140 36.7767 139.794 36.8833 139.587 36.97C139.387 37.0567 139.147 37.1 138.867 37.1C138.387 37.1 137.957 36.99 137.577 36.77C137.204 36.5433 136.91 36.2333 136.697 35.84C136.484 35.44 136.377 34.9933 136.377 34.5C136.377 34.0067 136.484 33.5633 136.697 33.17C136.91 32.77 137.2 32.46 137.567 32.24C137.94 32.0133 138.354 31.9 138.807 31.9C139.147 31.9 139.427 31.9433 139.647 32.03C139.874 32.1167 140.09 32.23 140.297 32.37C140.35 32.4033 140.404 32.4333 140.457 32.46C140.51 32.4867 140.557 32.5033 140.597 32.51L140.277 31.72L140.287 31.69H140.547L141.097 33.89L140.957 33.94ZM146.033 37.31L146.363 36.47C146.303 36.4767 146.236 36.4967 146.163 36.53C146.089 36.5633 146.013 36.6033 145.933 36.65C145.713 36.7833 145.506 36.8933 145.313 36.98C145.119 37.06 144.879 37.1 144.593 37.1C144.093 37.1 143.643 36.9867 143.243 36.76C142.849 36.5333 142.539 36.2233 142.313 35.83C142.086 35.43 141.973 34.9867 141.973 34.5C141.973 34.0067 142.083 33.5633 142.303 33.17C142.523 32.7767 142.826 32.4667 143.213 32.24C143.606 32.0133 144.046 31.9 144.533 31.9C145.033 31.9 145.473 32.01 145.853 32.23C146.239 32.45 146.539 32.7567 146.753 33.15C146.966 33.5433 147.076 33.9933 147.083 34.5C147.083 34.5133 147.083 34.53 147.083 34.55C147.083 34.57 147.083 34.5867 147.083 34.6H142.763C142.776 35.0467 142.859 35.4467 143.013 35.8C143.173 36.1533 143.383 36.43 143.643 36.63C143.909 36.8233 144.209 36.92 144.543 36.92C144.803 36.92 145.079 36.8367 145.373 36.67C145.666 36.4967 145.929 36.2833 146.163 36.03C146.403 35.77 146.576 35.5267 146.683 35.3L146.693 35.29L146.833 35.34L146.293 37.34H146.053L146.033 37.31ZM146.303 34.4C146.289 33.94 146.209 33.5367 146.063 33.19C145.916 32.8367 145.709 32.5633 145.443 32.37C145.183 32.1767 144.879 32.08 144.533 32.08C144.193 32.08 143.889 32.18 143.623 32.38C143.363 32.5733 143.156 32.8467 143.003 33.2C142.849 33.5467 142.769 33.9467 142.763 34.4H146.303ZM153.286 37.1C152.773 37.1 152.31 36.9867 151.896 36.76C151.483 36.5333 151.16 36.2233 150.926 35.83C150.693 35.43 150.576 34.9867 150.576 34.5C150.576 34.0133 150.693 33.5733 150.926 33.18C151.16 32.78 151.483 32.4667 151.896 32.24C152.31 32.0133 152.773 31.9 153.286 31.9C153.793 31.9 154.253 32.0133 154.666 32.24C155.08 32.4667 155.403 32.78 155.636 33.18C155.87 33.5733 155.986 34.0133 155.986 34.5C155.986 34.9867 155.87 35.43 155.636 35.83C155.403 36.2233 155.08 36.5333 154.666 36.76C154.253 36.9867 153.793 37.1 153.286 37.1ZM153.286 36.91C153.64 36.91 153.96 36.8067 154.246 36.6C154.54 36.3867 154.77 36.0967 154.936 35.73C155.103 35.3633 155.186 34.9533 155.186 34.5C155.186 34.04 155.103 33.6267 154.936 33.26C154.77 32.8933 154.54 32.6067 154.246 32.4C153.96 32.1867 153.64 32.08 153.286 32.08C152.926 32.08 152.6 32.1867 152.306 32.4C152.02 32.6067 151.793 32.8933 151.626 33.26C151.46 33.6267 151.376 34.04 151.376 34.5C151.376 34.9533 151.46 35.3633 151.626 35.73C151.793 36.0967 152.02 36.3867 152.306 36.6C152.6 36.8067 152.926 36.91 153.286 36.91ZM157.562 36.9C157.589 36.2467 157.602 35.7133 157.602 35.3V30.14C157.502 30.14 157.286 30.18 156.952 30.26L156.832 30.29L156.802 30.23L156.982 30H157.722C157.856 30 157.982 29.9967 158.102 29.99C158.222 29.9833 158.316 29.9733 158.382 29.96L158.392 30.04C158.386 30.24 158.376 30.5067 158.362 30.84C158.349 31.2133 158.342 31.5 158.342 31.7V34.4H159.132L160.302 33.1C160.369 33.0267 160.436 32.9533 160.502 32.88C160.569 32.8 160.636 32.72 160.702 32.64C160.762 32.56 160.826 32.48 160.892 32.4C160.959 32.3133 161.022 32.2267 161.082 32.14C161.029 32.14 160.966 32.1467 160.892 32.16C160.819 32.1733 160.739 32.19 160.652 32.21C160.526 32.2367 160.412 32.2633 160.312 32.29L160.282 32.23L160.472 32H161.702V32.09C161.596 32.17 161.462 32.28 161.302 32.42C161.102 32.5867 160.909 32.7567 160.722 32.93C160.542 33.1033 160.389 33.2633 160.262 33.41L159.652 34.08L160.982 35.76C161.102 35.92 161.186 36.02 161.232 36.06C161.512 36.3867 161.782 36.6667 162.042 36.9V37H160.362L160.172 36.76L160.202 36.7C160.262 36.7133 160.326 36.73 160.392 36.75C160.466 36.77 160.539 36.7867 160.612 36.8C160.799 36.84 160.919 36.86 160.972 36.86L159.142 34.6H158.342V35.3C158.342 35.7133 158.356 36.2467 158.382 36.9V37H157.562V36.9Z" fill="#093E5B"/>
<path d="M72 38H162.272V38.5H72V38Z" fill="#093E5B"/>
</svg>
